<svg width="1726" height="754" viewBox="0 0 1726 754" fill="none" xmlns="http://www.w3.org/2000/svg">
<path d="M1279.5 615.5L1275 621.5C1275.67 622.833 1277.3 625.8 1278.5 627C1279.7 628.2 1289.33 624.167 1294 622H1309.5L1324 614L1341 607C1346 609.833 1356.4 615.8 1358 617C1359.6 618.2 1360.33 622.167 1360.5 624L1367 622L1369.5 628.5L1370 642.5L1384.5 645.5L1396 644.5L1402.5 641L1412.5 638.5L1416.5 627.5L1423.5 622L1425 617L1429.5 612L1435 604.5L1442.5 586.5V572.5L1436.5 559.5L1433 550L1425 540L1422.5 522.5L1416.5 519.5V505.5H1410.5L1406 524.5L1400 536L1385.5 524.5L1387.5 512L1385.5 508.5L1374 505.5L1370 508.5L1364.5 512L1356 522.5L1348.5 519.5L1339 522.5L1330.5 532.5H1326L1319.5 545L1309.5 550L1293 553.5L1287 562L1282 569V574.5L1277 583L1279.5 590V603.5C1279.5 604.7 1281.17 607.667 1282 609L1279.5 615.5Z" fill="#DBEFEC"/>
<path d="M1378 660L1375 669L1379 670.5L1383 666.5H1388L1391 663L1392.5 656H1384.5L1379 654L1378 660Z" fill="#DBEFEC"/>
<path d="M1441 670.5L1425 681L1428 684H1437.5L1447.5 675L1453 673.5L1461.5 669L1472 658L1464.5 656L1459 660L1451 669L1441 670.5Z" fill="#DBEFEC"/>
<path d="M1475.5 647L1478 651L1477 655L1478 658L1484 657L1490 649L1499 644.5V640L1494.5 638L1494 635.5L1491.5 634V627.5L1489 624L1486 626V637.5L1481 642.5L1475.5 647Z" fill="#DBEFEC"/>
<path d="M1484.5 538.5V545H1489L1491.5 543L1489 538.5H1484.5Z" fill="#DBEFEC"/>
<path d="M1381.5 450C1379 449.833 1373.2 449.6 1370 450C1370 452.167 1370.4 456.9 1372 458.5C1373.6 460.1 1377 460.5 1378.5 460.5L1374 464V467L1383.5 469L1395.5 475.5L1400 483L1393.5 490.5H1400H1406L1412 494.5L1418.5 492.5L1423.5 487L1429.5 490.5L1433 496L1440.5 501.5H1448.5L1447 496L1438 487L1440.5 483L1438 478L1429.5 472.5L1422.5 464L1410.5 460.5L1400 455L1393.5 458.5L1385.5 464V458.5L1381.5 450Z" fill="#DBEFEC"/>
<path d="M1452 472.5L1447 475.5H1443.5L1445 478H1455.5L1458 473.5L1457 469L1452 472.5Z" fill="#DBEFEC"/>
<path d="M1027.5 98L1033.5 104.5V106.5L1022 119.5L1019.5 141.5L1022.5 156.5L1021.5 168.5L1019 172.5L1012 175L1023.5 181.5L1020 188.5H1001L998.5 195L1001.5 210.5L994.5 220.5L1001.5 231V235L993 241L985 235.5L974.5 234.5L964.5 239.5L948 233L934.5 237.5H925L919.5 241.5L915.5 248L922.5 260L934.5 261.5H948L956 263.5L954 280.5L951 288.5L956 298.5L962.5 309.5L971 328.5L974.5 343.5L982 348L988.5 356.5L993.5 365V376.5L999.5 381L1013.5 376.5L1028.5 374.5L1035.5 363L1047 354L1059 340L1060.5 332L1047 323L1043 318H1039.5L1033 325H1026.5L1021 313.5L1012 307L1008.5 300.5L1010.5 294.5H1015.5L1021 300.5L1026.5 307L1039.5 311L1047 309.5L1050 316L1062 318L1072 320L1085 318L1092.5 320L1096.5 328.5L1100 332L1102 338.5L1109.5 340L1116 334.5L1117.5 341.5L1116 354L1120.5 363L1122 374.5L1126.5 383L1137 403L1144.5 399L1148 389.5V374.5L1153 363L1165.5 354L1171.5 343.5L1179 334.5L1190 332L1194.5 340L1204.5 354L1206.5 366.5H1213L1218.5 360.5L1223.5 374.5L1227.5 393V408.5L1235.5 419L1242.5 434.5L1251 439L1253 434.5L1251 421L1244 414L1231 399L1233 381.5H1239L1248.5 389.5L1253 397.5L1257 403L1263.5 397.5L1273.5 387V370L1263.5 360.5L1255 346L1259 338.5H1267.5L1273.5 343.5L1275.5 338.5L1283 336L1291.5 332L1301.5 324.5L1309 307.5V295L1307 292.5L1309 287.5L1293.5 267L1299 255.5L1289.5 257.5L1277.5 248L1291.5 240V246L1297 248L1304 244L1309 252.5L1316.5 257.5V265.5L1321 272.5L1330.5 269L1329 259L1321 251L1316.5 244L1321 236.5V226L1329 230H1333V218L1337.5 204.5L1336 187L1326 175.5H1316.5L1302 169.5L1300.5 162L1307 150L1314 146.5L1324.5 150L1330.5 146.5L1341.5 150L1347 148.5V143L1350 138L1355.5 145C1357.33 144.333 1361.2 143 1362 143C1362.8 143 1363.33 137.667 1363.5 135L1369.5 138L1366.5 143V150L1364.5 156.5V162L1378 178.5L1391.5 189.5L1389.5 183L1394 178.5L1391.5 172L1394 167.5L1391.5 163.5L1387.5 153.5H1380.5L1378 145L1383 143L1394 145L1403 136L1413.5 132.5L1403 125L1407.5 120.5L1419.5 125H1429.5L1425.5 116.5L1411 111.5L1385 104.5L1347 98.5V104.5L1336 98.5L1316.5 101.5L1304.5 96H1282L1265.5 89.5L1246 86.5L1236.5 93H1227L1220.5 98.5L1213 96L1201 86.5L1186 83.5L1177 86.5L1163.5 83.5L1138.5 86.5L1147 80L1145.5 74H1132.5L1118.5 72L1107 69C1105.67 70.5 1102.8 74 1102 76C1101.2 78 1088 76.8333 1081.5 76L1073.5 83.5H1066L1061.5 86.5L1066 93L1044 94L1048.5 101.5L1050 104.5L1056.5 106.5V114L1050 116.5L1045.5 114L1047 106.5L1044 100L1037 90.5L1031 88.5L1024.5 90.5L1027.5 98Z" fill="#DBEFEC"/>
<path d="M1150 403L1152 400.5H1154L1159 408.5V414C1159 414.8 1155 416.333 1153 417L1148 411.5L1150 403Z" fill="#DBEFEC"/>
<path d="M1340.5 273.5L1336 281L1340.5 284.5L1343.5 289L1346 287.5L1348.5 279.5L1353.5 277.5L1356.5 272.5L1363 275L1368.5 271.5L1375.5 267L1373 251V244L1364.5 236.5L1362 240.5L1364.5 246V252.5L1360.5 259L1355 264.5L1342.5 266.5L1340.5 273.5Z" fill="#DBEFEC"/>
<path d="M1363 231L1360.5 234L1353.5 229L1357.5 224.5L1355 219L1357.5 218L1364.5 220L1373 222.5L1375.5 226L1373 229L1369.5 233L1363 231Z" fill="#DBEFEC"/>
<path d="M1340 187L1333 177.5V175.5L1343.5 181L1346 189.5L1349 191L1352 199L1353.5 205C1354 206.5 1355 209.7 1355 210.5C1355 211.3 1353 211.833 1352 212L1347 205L1341.5 197L1340 187Z" fill="#DBEFEC"/>
<path d="M1313.5 319L1310.5 324.5L1307 327L1310.5 332L1316 333L1317.5 322L1313.5 319Z" fill="#DBEFEC"/>
<path d="M1316 355.5V362.5L1313.5 371.5L1319 375.5H1323V370L1325 360.5L1321 352.5L1316 355.5Z" fill="#DBEFEC"/>
<path d="M1341.5 418L1337.5 414L1336.5 411H1332L1329 409.5L1332 404.5L1339 403L1341.5 399H1347.5L1345.5 403L1347.5 407.5L1345.5 416.5L1341.5 418Z" fill="#DBEFEC"/>
<path d="M1336.5 394L1334.5 397.5H1329L1332 390.5L1336.5 394Z" fill="#DBEFEC"/>
<path d="M1337.5 385.5L1339 388.5H1341.5V383L1337.5 385.5Z" fill="#DBEFEC"/>
<path d="M1328 378L1333.5 381.5L1336.5 379.5L1334.5 376.5L1329 374.5L1328 378Z" fill="#DBEFEC"/>
<path d="M1325 381.5L1323 384.5L1317.5 383L1321 380.5L1325 381.5Z" fill="#DBEFEC"/>
<path d="M1226 421H1217V424.5L1222.5 430L1229 436L1231 443.5L1235.5 452.5L1246.5 469L1257 476L1260.5 472.5V464L1257 457L1251 452.5V446.5L1245 441L1234 430L1226 421Z" fill="#DBEFEC"/>
<path d="M1267.5 486.5L1260.5 483V478.5L1267.5 477.5L1275 481.5L1279 481H1282.5L1290 481.5C1290.83 482 1292.5 483.3 1292.5 484.5C1292.5 485.7 1296.5 486.333 1298.5 486.5L1300 491H1292.5H1281.5L1275 486.5H1267.5Z" fill="#DBEFEC"/>
<path d="M1279 459.5L1281.5 462L1284.5 464L1290 465.5H1295.5L1301.5 469L1306 465.5L1305 457L1307.5 452.5L1310.5 447L1314.5 443.5L1316 439L1312.5 428L1317.5 421L1314.5 418L1309.5 414H1303.5L1300 421L1292.5 424.5L1287 431.5L1279 437.5L1273.5 439V448L1279 454V459.5Z" fill="#DBEFEC"/>
<path d="M1332 441L1319.5 443.5V448L1325.5 446H1331L1337.5 447L1343.5 443.5V439L1337.5 441H1332Z" fill="#DBEFEC"/>
<path d="M1317.5 459.5C1317.1 460.7 1315.67 462.667 1315 463.5L1318.5 468V474L1320.5 476L1323 472.5L1322 463L1324.5 462C1324.83 462.833 1325.5 464.7 1325.5 465.5C1325.5 466.3 1328.17 469.5 1329.5 471H1332.5V467L1329 458.5L1332.5 454L1332 451C1330.17 451 1326.3 451.1 1325.5 451.5C1324.7 451.9 1321.83 451.333 1320.5 451C1319.67 453.333 1317.9 458.3 1317.5 459.5Z" fill="#DBEFEC"/>
<path d="M1311.5 489.5C1311.5 488.5 1306.5 490 1305 490.5L1306 494.5H1310.5L1312.5 493.5C1312.17 492.5 1311.5 490.3 1311.5 489.5Z" fill="#DBEFEC"/>
<path d="M1321 491L1318.5 492L1320.5 496.5L1323.5 495.5L1324 492.5L1321 491Z" fill="#DBEFEC"/>
<path d="M1338.5 500.5L1333.5 501L1332 498L1334 495.5L1338.5 496V500.5Z" fill="#DBEFEC"/>
<path d="M1345 490.5L1342.5 493.5L1347 495L1349.5 490.5H1345Z" fill="#DBEFEC"/>
<path d="M1350 462.5L1347 465.5L1352.5 467L1353.5 465L1350 462.5Z" fill="#DBEFEC"/>
<path d="M1356 445.5L1354.5 444.5L1356 441L1358 443.5L1356 445.5Z" fill="#DBEFEC"/>
<path d="M816 239.5L824.5 234.5L829 227.5H834.5L840.5 226.5L842.5 224H850.5L856 226.5L857 234.5L861 236L870.5 239.5L873.5 242.5L874.5 245V249.5L873.5 252.5L875.5 253.5L878 251.5L879.5 246.5L880.5 242.5L885.5 246.5L886.5 244L883.5 240.5L878 236L870.5 231.5L865 226.5L862 220.5L864 216.5L868.5 219L873.5 224L878 225L885.5 230.5L888 239.5L892 245L900 246.5V249.5L895.5 251.5V256.5L900.5 261L904.5 259L908 254.5L904.5 245L908 239.5L917 238.5L923.5 234.5L921.5 232.5V226.5L926 220.5L929.5 214.5H936L942.5 220.5L948 219V210.5H953.5L959 205L962 210.5L956.5 214.5V219L964 224L970.5 226.5L973 230.5L976 232.5L985.5 234.5L993 239.5L1000 234.5V230.5L993 220.5L1000 210.5L996.5 195L1000 187H1017.5L1021 182L1011.5 176.5L1008 174.5C1010.17 173.667 1015.1 172 1017.5 172C1019.9 172 1020.83 161.667 1021 156.5L1017.5 141L1021 119L1032.5 105.5L1021 100L1011.5 105.5H1000L981.5 109L969 112L966.5 109L963 105.5L958.5 109L960 113.5L958.5 117H952L949.5 122.5L945 125L943.5 122.5H937L935.5 125L929.5 120L928.5 117H937H946.5L949.5 112L940 107.5L917 100L908 96L893 97.5L875 101.5L868.5 107.5L859.5 121.5L852 128L844.5 130L836 134L834.5 147L842 155L849 150.5H856L859 155L862.5 168.5L868.5 167.5L875 162V155L880.5 149V145L877.5 138.5L879.5 132L886 128L890.5 125L893 119H898L900.5 122.5L894.5 128L890.5 134L894.5 144L900.5 145L906 142L914 141L917 144L914 147H906L900.5 149L902.5 153.5V156.5C899.833 156.667 894 157.4 892 159C890 160.6 891.167 164.333 892 166L888 172L883 168.5L873.5 174.5H868.5L865 172H858H852V166V159H848L844.5 163.5L848 172L844.5 176.5H837.5L830.5 182L824.5 187L821 190L815 197.5L812 195H807V198.5L803 201L797 203V205L803 207L808 210.5L810 220.5L807 225L802 226.5L789 224L781.5 225L778 230.5V238.5L776 242.5V248.5V254.5L781.5 259H788L791.5 261H801L807 256.5L812 251.5V245L816 239.5Z" fill="#DBEFEC"/>
<path d="M873.5 256.5C874.3 257.3 872.5 259.833 871.5 261L864.5 258.5L862.5 256L865 251.5H871.5C871.833 252.833 872.7 255.7 873.5 256.5Z" fill="#DBEFEC"/>
<path d="M846 229.5L847 234.5H851.5C851.167 233.167 850.5 230.3 850.5 229.5C850.5 228.7 847.5 229.167 846 229.5Z" fill="#DBEFEC"/>
<path d="M844.5 246.5L846 238.5L853 240.5V246.5L849 249.5L844.5 246.5Z" fill="#DBEFEC"/>
<path d="M914 267H908L915 272L923.5 270L914 267Z" fill="#DBEFEC"/>
<path d="M804.5 190C802.833 190.667 799.3 192.2 798.5 193L797 188.5L802 187V185.5L798.5 183L800 178H805.5V173L802 168.5L798.5 164.5L796 163.5V156L801 150.5L805.5 152.5L804.5 156L812 157V160.5L809 163L809.5 166.5L814 171L817 176.5L821 178L823 182C822 182.5 819.9 183.7 819.5 184.5C819.1 185.3 818.333 187.5 818 188.5H816L813 190L810 191.5L804.5 190Z" fill="#DBEFEC"/>
<path d="M787.5 184.5L781.5 187L778 184.5L780.5 180L778 178V172H784L786 168.5L791.5 166.5C792.667 168 795.2 171.2 796 172C796.8 172.8 795 174 794 174.5V178L793 183L787.5 184.5Z" fill="#DBEFEC"/>
<path d="M768 116.5L756.5 118.5L747 116L744 120L748 122L747 125.5L749 129.5H756.5L761 131.5L765.5 127.5L773 125L777.5 121.5L775 116.5H768Z" fill="#DBEFEC"/>
<path d="M470 329L460 332.5L464.5 335L473 337L482 340L486.5 346H491.5L500 348L499 343.5L491.5 337L481 330.5L470 329Z" fill="#DBEFEC"/>
<path d="M476.5 348.5L473 350L473.5 355.5L479 357.5H484.5L484 354.5L481 353L476.5 348.5Z" fill="#DBEFEC"/>
<path d="M508 355.5H500V351.5H504V348L507 346L511.5 348H515L522.5 348.5L521.5 353C519.833 353.833 516.2 355.7 515 356.5C513.8 357.3 509.833 356.167 508 355.5Z" fill="#DBEFEC"/>
<path d="M532 356.5L527.5 354.5V351.5H532L537 353V356.5H532Z" fill="#DBEFEC"/>
<path d="M417 451L414 453.5L417.5 455.5L419 458.5L422 457.5L421 452.5L417 451Z" fill="#DBEFEC"/>
<path d="M418.5 444.5L416 445.5L417.5 448.5L420.5 448L421.5 446.5L418.5 444.5Z" fill="#DBEFEC"/>
<path d="M425.5 450.5L423.5 451V453.5L426.5 454.5L428 452.5L425.5 450.5Z" fill="#DBEFEC"/>
<path d="M602.5 197L591 206H606.5L614 211L616.5 206V200V195.5H611.5V191.5C611 190.5 609.9 188.2 609.5 187C609.1 185.8 604.667 193.167 602.5 197Z" fill="#DBEFEC"/>
<path d="M586 100.5L555.5 98L557 90L566 85.5V91.5L570.5 92.5L577.5 87.5L591 91.5H606.5C609.7 91.5 611.167 97.5 611.5 100.5L616.5 106.5L624 112L616.5 121L606.5 116H602.5L609.5 126.5L602.5 129.5L595 126.5V132L591 137L583.5 126.5L569 121H583.5L586 112V100.5Z" fill="#DBEFEC"/>
<path d="M678 132L668 144L659 137L652 116L659 108.5L666 98L662 92.5L659 78.5L652 75.5L632 76.5L629.5 69L653 64L666 57.5L680.5 54.5H696C696.833 55.8333 699.1 57.7 701.5 54.5C703.9 51.3 715.833 50.5 721.5 50.5H761.5C763.5 50.5 771.333 53.1667 775 54.5H791.5L788.5 58.5L771.5 64L767 76.5L757 85.5L747 92.5V100.5L741.5 106.5H723.5L705.5 121L694 118L687 126.5L678 132Z" fill="#DBEFEC"/>
<path d="M599 54.5L594 57.5L600.5 59L604 61.5L595 67L581 69L580 74.5L574 75.5L563 73.5V78.5L576 83.5L590 81.5L593 78.5L586 76.5V73.5L606.5 71.5L624 64L662 55.5L658 52L632 55.5L616.5 52L599 54.5Z" fill="#DBEFEC"/>
<path d="M485.5 101L479 105L471 106L464 101.5L477.5 101L465.5 97L467.5 91.5H476L482 88.5L493 90H501L510 87.5C510 88.5 509.9 90.7 509.5 91.5C509.1 92.3 507.667 93.8333 507 94.5L509.5 98V102.5C509.5 102.9 506.833 104.333 505.5 105L494 104L485.5 101Z" fill="#DBEFEC"/>
<path d="M535 90L525 94.5L519.5 90L525 86.5L536 85.5L535 90Z" fill="#DBEFEC"/>
<path d="M503 73.5C500 73.8333 493.8 74.9 493 76.5V81.5L505.5 83.5L521 81.5L525 78.5L521 75.5L510 79.5L503 73.5Z" fill="#DBEFEC"/>
<path d="M543.5 66L547 69C549 69 553.5 68.6 555.5 67C557.5 65.4 555.667 64.6667 554.5 64.5L545.5 63L543.5 66Z" fill="#DBEFEC"/>
<path d="M552.5 81.5L550 79.5L552.5 76.5L555.5 78.5L552.5 81.5Z" fill="#DBEFEC"/>
<path d="M545.5 79.5H537L536 76.5L543.5 72.5L547 76.5L545.5 79.5Z" fill="#DBEFEC"/>
<path d="M565 695L581.5 724.5L572.5 728.5L562.5 719L553.5 718L540.5 702L532.5 670L526.5 660L521.5 632.5L518.5 609V570.5L515 542L506.5 532.5L489.5 527L478.5 503L464 483.5V467.5L467.5 465L464 455L468.5 444L478.5 433V411L472 403L468.5 408H460L446.5 392.5L449.5 388.5L443 387L438.5 381.5L421.5 375.5L417 367L393.5 365L370.5 350.5V337L357 315L351 287L342 290L354.5 327H351L342 313L336.5 280.5L326.5 276L322 250L332.5 241V225L346.5 202.5L354.5 199L346.5 177.5V151.5L322 142.5L307.5 140.5L283 157.5L255.5 169.5L258.5 142.5L283 128.5L297 107.5L326.5 99.5H375.5L397 103H437L468.5 113.5H497.5L518.5 107.5L540.5 92.5L546 107.5L567 103L560.5 113.5L543 116.5L536 124L497.5 142.5L495.5 157.5H502.5L518.5 169.5L526.5 173L521.5 183H532L536 169.5L550.5 160.5V148.5L557 140.5L560.5 134H575L583.5 140.5V148.5L590 147L602.5 148.5V160.5L609.5 169.5L613.5 183L592.5 191.5L557 194V202.5L575 199L579 213L567 221.5L560.5 218L543 225L536 236.5H526.5L518.5 250L510 254L502.5 271.5L485.5 280.5L478.5 293.5L481.5 307.5L478.5 316.5L472 313L468.5 297.5L449.5 293.5L440.5 297.5H427L414.5 302L407.5 316.5L404 327L407.5 341L414.5 354L427 350.5L437 337L446.5 341L440.5 365H456L460 375.5L456 388.5L464 400.5L478.5 397L485.5 403L489.5 392.5L506.5 384L515 388.5L526.5 392.5H540.5L553.5 400.5L567 415.5L583.5 418L594 427L604.5 448L613.5 451L623 459H638L650 467.5L662 474L658.5 495.5L654 507.5L647 515L650 536L641 562.5L616.5 570.5V586L604.5 602.5L590.5 637.5L572.5 646.5L565 695Z" fill="#DBEFEC"/>
<path d="M804 423L824 415L833.5 423H840L850 428L846.5 441.5V455L859 468.5L862.5 477L867 507.5L859 521L862.5 545.5L870.5 563.5L873.5 581.5L885 604V616.5L890.5 627L912 624L929.5 613L941.5 597.5L946 581.5L959 567L955 552.5L965 536L984.5 521L980 494V463.5L991 448L1013.5 431L1030.5 400.5L1025 386.5L1013.5 393.5H997L991 381L980 365.5L972 352L965 331.5L946 300H955L950.5 290L939 284L922 290L895 277L890.5 290L864.5 277L852 274L857 261.5L848 257L809.5 266H790.5L774.5 277L766.5 300L749.5 322.5L742.5 343V381L756.5 400.5L774.5 423H790.5H804Z" fill="#DBEFEC"/>
<path d="M1013.5 556.5L1008.5 571L997 578L991 573.5V556.5L994 545.5L997 529.5L1008.5 525.5L1013.5 512.5H1021.5L1025 525.5L1017.5 536L1013.5 556.5Z" fill="#DBEFEC"/>
<path d="M1046 550.5L1047 552.5H1053.5L1055 549.5L1054.5 546.5L1050.5 545.5L1047 547L1046 550.5Z" fill="#DBEFEC"/>
<path d="M1062 542.5L1064 545.5L1070 542.5L1068.5 540H1064L1062 542.5Z" fill="#DBEFEC"/>
</svg>
